<?xml version="1.0" standalone="no"?>
<!DOCTYPE svg PUBLIC "-//W3C//DTD SVG 20010904//EN"
 "http://www.w3.org/TR/2001/REC-SVG-20010904/DTD/svg10.dtd">
<svg version="1.0" xmlns="http://www.w3.org/2000/svg"
 width="512.000000pt" height="512.000000pt" viewBox="0 0 512.000000 512.000000"
 preserveAspectRatio="xMidYMid meet">

<g transform="translate(0.000000,512.000000) scale(0.100000,-0.100000)"
fill="#000000" stroke="none">
<path d="M2345 4829 c-900 -85 -1678 -711 -1954 -1573 -78 -242 -105 -424
-105 -696 0 -272 27 -454 105 -696 222 -695 778 -1251 1473 -1473 242 -78 424
-105 696 -105 272 0 454 27 696 105 695 222 1251 778 1473 1473 78 242 105
424 105 696 0 416 -91 766 -292 1123 -437 775 -1308 1229 -2197 1146z m440
-139 c406 -45 806 -208 1114 -454 109 -87 112 -69 -32 -215 -70 -70 -127 -136
-127 -145 0 -23 63 -86 86 -86 9 0 77 59 149 130 l132 131 59 -68 c137 -155
237 -306 329 -495 288 -589 287 -1284 -3 -1873 -94 -190 -188 -331 -336 -500
l-34 -40 -140 138 c-76 75 -147 137 -156 137 -23 0 -86 -63 -86 -86 0 -9 62
-80 138 -156 135 -138 137 -139 116 -156 -12 -9 -53 -42 -91 -74 -422 -342
-1019 -518 -1558 -458 -440 49 -882 241 -1189 517 l-38 35 136 137 c75 76 136
146 136 155 0 23 -63 86 -86 86 -9 0 -80 -62 -156 -137 l-140 -138 -34 40
c-366 420 -554 909 -554 1440 0 526 191 1027 544 1428 l59 68 132 -131 c72
-71 140 -130 149 -130 23 0 86 63 86 86 0 9 -57 75 -127 145 -144 146 -141
128 -32 215 303 241 707 408 1099 453 107 12 349 13 455 1z"/>
<path d="M1210 2892 l-21 -17 105 -310 c58 -170 110 -317 114 -325 5 -8 19
-15 32 -15 20 0 31 27 131 320 60 176 109 325 109 332 0 7 -9 17 -20 23 -15 8
-24 6 -38 -8 -10 -10 -54 -124 -97 -253 -43 -129 -81 -238 -85 -242 -4 -5 -25
42 -45 105 -87 260 -137 397 -150 402 -8 3 -23 -3 -35 -12z"/>
<path d="M2007 2904 c-16 -5 -17 -28 -15 -342 l3 -337 24 -3 c13 -2 28 2 32
10 5 7 9 68 9 136 l0 122 118 0 c190 0 222 30 222 210 0 86 -4 111 -20 137
-37 61 -59 68 -215 70 -77 1 -148 -1 -158 -3z m303 -94 c17 -17 20 -33 20
-110 0 -83 -2 -93 -25 -115 -23 -24 -31 -25 -135 -25 l-110 0 0 135 0 135 115
0 c102 0 117 -2 135 -20z"/>
<path d="M2721 2896 c-8 -9 -11 -108 -9 -342 l3 -329 30 0 30 0 5 250 5 250
67 -111 c72 -119 90 -139 112 -131 8 3 46 59 85 124 l71 118 0 -241 c0 -173 3
-243 12 -252 18 -18 46 -14 58 7 11 21 14 598 4 638 -6 23 -26 35 -47 27 -7
-2 -43 -55 -80 -117 -37 -61 -77 -129 -90 -151 l-24 -39 -68 114 c-121 203
-136 219 -164 185z"/>
<path d="M3516 2894 c-41 -40 -10 -64 81 -64 l73 0 0 -289 c0 -159 3 -296 6
-305 9 -22 51 -20 64 3 6 12 10 128 10 305 l0 286 69 0 c73 0 106 16 94 46
-11 29 -43 34 -212 34 -141 0 -172 -3 -185 -16z"/>
</g>
</svg>
